<svg xmlns="http://www.w3.org/2000/svg" width="2201.979" height="1993.873" viewBox="0 0 2201.979 1993.873">
  <g id="g54" transform="translate(-1580 3500.528) rotate(-74)">
    <path id="path56" d="M2520.1-4032.779c103.509-112.646,94.124-313.7-109.209-334.85-29.471-2.26-59.211-2.774-88.86-2.774-58.341.055-117.729-55.009-91.149-108.07,44.832-100.975,62.9-210.073,17.021-312.941-37.2-99.266-118.861-155.1-211.764-175.19-170.434-37.088-378.6,46.132-419.484,202.8-16.929,68.407-23.854,152.749-115.615,181.494-79.293,29.2-171.408,56.976-252.461,95.186-66.931,31.392-126.317,69.841-164.828,122.056a228.432,228.432,0,0,0-38.158,79.159c-12.018,54.714-3.07,95.718,33.859,127.919,14.212,12.424,32.632,23.635,55.7,33.707,24.124,9.87,44.562,22.276,61.581,36.722,44.737,37.935,65.09,89.708,63.513,144.111,5.7,192.624-28.863,240.553,3.422,339.657,62.365,177.212,220.969,212.2,395.008,158.618,111.666-31.07,235.264-19.936,314.659,85.41,29.647,37.4,70.959,105.8,120.436,158.77,62.106,66.521,137.024,108.582,217.642,33.862,131.4-155.161,278.149-374.743,99.16-493.644,23.076-147.788,20.135-249.185,109.523-371.995" transform="translate(1332.825 5938.468)" fill="#f2faff"/>
  </g>
</svg>
